{
	"asset":{
		"generator":"Khronos glTF Blender I/O v3.6.28",
		"version":"2.0"
	},
	"scene":0,
	"scenes":[
		{
			"name":"Scene",
			"nodes":[
				0
			]
		},
		{
			"name":"Scene.001"
		}
	],
	"nodes":[
		{
			"mesh":0,
			"name":"spider.001",
			"translation":[
				-1.295075890084263e-05,
				-0.008095036260783672,
				-0.002228185534477234
			]
		}
	],
	"materials":[
		{
			"doubleSided":true,
			"name":"spider",
			"pbrMetallicRoughness":{
				"baseColorFactor":[
					1,
					0,
					0,
					1
				],
				"metallicFactor":0,
				"roughnessFactor":0.5
			}
		},
		{
			"doubleSided":true,
			"name":"spider.legs",
			"pbrMetallicRoughness":{
				"baseColorFactor":[
					0,
					0,
					0,
					1
				],
				"metallicFactor":0,
				"roughnessFactor":0.5
			}
		},
		{
			"doubleSided":true,
			"name":"spider.tee",
			"pbrMetallicRoughness":{
				"baseColorFactor":[
					0.800000011920929,
					0.800000011920929,
					0.800000011920929,
					1
				],
				"metallicFactor":0,
				"roughnessFactor":0.5
			}
		}
	],
	"meshes":[
		{
			"name":"Cylinder.003",
			"primitives":[
				{
					"attributes":{
						"POSITION":0,
						"NORMAL":1
					},
					"indices":2,
					"material":0
				},
				{
					"attributes":{
						"POSITION":3,
						"NORMAL":4
					},
					"indices":5,
					"material":1
				},
				{
					"attributes":{
						"POSITION":6,
						"NORMAL":7
					},
					"indices":8,
					"material":2
				}
			]
		}
	],
	"accessors":[
		{
			"bufferView":0,
			"componentType":5126,
			"count":6,
			"max":[
				0.04494225233793259,
				0.08276405185461044,
				-0.07639362663030624
			],
			"min":[
				-0.04494225233793259,
				0.05183371901512146,
				-0.1356591135263443
			],
			"type":"VEC3"
		},
		{
			"bufferView":1,
			"componentType":5126,
			"count":6,
			"type":"VEC3"
		},
		{
			"bufferView":2,
			"componentType":5123,
			"count":12,
			"type":"SCALAR"
		},
		{
			"bufferView":3,
			"componentType":5126,
			"count":198,
			"max":[
				0.39569512009620667,
				0.08276405185461044,
				0.3882931172847748
			],
			"min":[
				-0.39569512009620667,
				-0.026265807449817657,
				-0.378720223903656
			],
			"type":"VEC3"
		},
		{
			"bufferView":4,
			"componentType":5126,
			"count":198,
			"type":"VEC3"
		},
		{
			"bufferView":5,
			"componentType":5123,
			"count":1050,
			"type":"SCALAR"
		},
		{
			"bufferView":6,
			"componentType":5126,
			"count":10,
			"max":[
				0.03780095651745796,
				0.011563645675778389,
				0.08360835164785385
			],
			"min":[
				-0.037781063467264175,
				-0.029706405475735664,
				0.024861818179488182
			],
			"type":"VEC3"
		},
		{
			"bufferView":7,
			"componentType":5126,
			"count":10,
			"type":"VEC3"
		},
		{
			"bufferView":8,
			"componentType":5123,
			"count":30,
			"type":"SCALAR"
		}
	],
	"bufferViews":[
		{
			"buffer":0,
			"byteLength":72,
			"byteOffset":0,
			"target":34962
		},
		{
			"buffer":0,
			"byteLength":72,
			"byteOffset":72,
			"target":34962
		},
		{
			"buffer":0,
			"byteLength":24,
			"byteOffset":144,
			"target":34963
		},
		{
			"buffer":0,
			"byteLength":2376,
			"byteOffset":168,
			"target":34962
		},
		{
			"buffer":0,
			"byteLength":2376,
			"byteOffset":2544,
			"target":34962
		},
		{
			"buffer":0,
			"byteLength":2100,
			"byteOffset":4920,
			"target":34963
		},
		{
			"buffer":0,
			"byteLength":120,
			"byteOffset":7020,
			"target":34962
		},
		{
			"buffer":0,
			"byteLength":120,
			"byteOffset":7140,
			"target":34962
		},
		{
			"buffer":0,
			"byteLength":60,
			"byteOffset":7260,
			"target":34963
		}
	],
	"buffers":[
		{
			"byteLength":7320,
			"uri":"data:application/octet-stream;base64,"
		}
	]
}
